<!DOCTYPE svg PUBLIC "-//W3C//DTD SVG 1.1//EN" "http://www.w3.org/Graphics/SVG/1.1/DTD/svg11.dtd">
<!-- Uploaded to: SVG Repo, www.svgrepo.com, Transformed by: SVG Repo Mixer Tools -->
<svg fill="#2d5292" height="800px" width="800px" version="1.1" id="Layer_1" xmlns="http://www.w3.org/2000/svg" xmlns:xlink="http://www.w3.org/1999/xlink" viewBox="0 0 512 512" xml:space="preserve" stroke="#2d5292" stroke-width="6.656000000000001">
<g id="SVGRepo_bgCarrier" stroke-width="0"/>
<g id="SVGRepo_tracerCarrier" stroke-linecap="round" stroke-linejoin="round"/>
<g id="SVGRepo_iconCarrier"> <g> <g> <path d="M346.607,93.21H151.228c-5.151,0-9.326,4.174-9.326,9.326v109.635c0,5.152,4.176,9.326,9.326,9.326h195.379 c5.15,0,9.326-4.174,9.326-9.326V102.536C355.933,97.384,351.758,93.21,346.607,93.21z M337.281,202.845H160.554v-90.983h176.727 V202.845z"/> </g> </g> <g> <g> <path d="M297.693,129.289h-97.551c-5.151,0-9.326,4.174-9.326,9.326s4.176,9.326,9.326,9.326h97.551 c5.151,0,9.326-4.174,9.326-9.326S302.843,129.289,297.693,129.289z"/> </g> </g> <g> <g> <path d="M297.693,166.764h-97.551c-5.151,0-9.326,4.174-9.326,9.326s4.176,9.326,9.326,9.326h97.551 c5.151,0,9.326-4.174,9.326-9.326S302.843,166.764,297.693,166.764z"/> </g> </g> <g> <g> <path d="M485.407,394.215c-5.151,0-9.326,4.174-9.326,9.326v59.451c0,16.738-13.617,30.356-30.356,30.356H151.589 c-12.133,0-22.615-6.993-27.471-17.357h184.471c5.151,0,9.326-4.174,9.326-9.326s-4.176-9.326-9.326-9.326H101.85 c-16.738,0-30.356-13.617-30.356-30.356v-30.001h16.29c14.252,0,25.847-11.594,25.847-25.846 c0-14.251-11.594-25.846-25.847-25.846h-16.29v-37.069h16.29c14.251,0,25.847-11.594,25.847-25.846s-11.594-25.846-25.847-25.846 h-16.29V219.46h16.29c14.251,0,25.847-11.594,25.847-25.846c0-14.252-11.594-25.846-25.847-25.846h-16.29V130.7h16.29 c14.251,0,25.847-11.594,25.847-25.846s-11.594-25.846-25.847-25.846h-16.29v-30c0-16.738,13.617-30.356,30.356-30.356h45.581 c5.151,0,9.326-4.174,9.326-9.326S152.581,0,147.431,0H101.85C74.826,0,52.842,21.986,52.842,49.008v30h-9.729 c-14.252,0-25.846,11.594-25.846,25.846S28.861,130.7,43.113,130.7h9.729v37.069h-9.729c-14.252,0-25.846,11.594-25.846,25.846 s11.594,25.846,25.846,25.846h9.729v37.069h-9.729c-14.252,0-25.846,11.594-25.846,25.846c0,14.252,11.594,25.846,25.846,25.846 h9.729v37.069h-9.729c-14.252,0-25.846,11.594-25.846,25.846s11.594,25.846,25.846,25.846h9.729v30.001 c0,27.022,21.985,49.008,49.008,49.008h2.477c5.69,21.024,24.704,36.009,47.262,36.009h294.136 c27.023,0,49.008-21.986,49.008-49.008v-59.451C494.733,398.391,490.557,394.215,485.407,394.215z M43.113,112.047 c-3.967,0-7.194-3.226-7.194-7.194c0-3.967,3.227-7.194,7.194-7.194h44.671c3.911,0,7.193,3.284,7.193,7.194 c0,3.967-3.227,7.194-7.193,7.194H43.113z M43.113,200.808c-3.967,0-7.194-3.226-7.194-7.193c0-3.967,3.227-7.194,7.194-7.194 h44.671c3.967,0,7.193,3.227,7.193,7.194c0,3.967-3.227,7.193-7.193,7.193H43.113z M43.113,289.569 c-3.967,0-7.194-3.227-7.194-7.194c0-3.967,3.227-7.193,7.194-7.193h44.671c3.967,0,7.193,3.227,7.193,7.193 c0,3.907-3.285,7.194-7.193,7.194H43.113z M43.113,378.33c-3.967,0-7.194-3.227-7.194-7.194s3.227-7.194,7.194-7.194h44.671 c3.914,0,7.193,3.289,7.193,7.194c0,3.883-3.31,7.194-7.193,7.194H43.113z"/> </g> </g> <g> <g> <path d="M445.725,36.009h-2.494C437.518,15.277,418.508,0,395.986,0H184.735c-5.15,0-9.326,4.174-9.326,9.326 s4.176,9.326,9.326,9.326h211.251c15.78,0,28.78,12.103,30.219,27.512c0.001,0.007,0,0.015,0.001,0.022 c0.045,0.492,0.078,0.965,0.101,1.425c0.021,0.463,0.035,0.928,0.035,1.395v377.975c0,16.738-13.617,30.356-30.356,30.356h-51.507 c-5.151,0-9.326,4.174-9.326,9.326s4.176,9.326,9.326,9.326h51.507c27.023,0,49.008-21.986,49.008-49.008V54.661h0.731 c16.738,0,30.356,13.617,30.356,30.356v281.22c0,5.152,4.176,9.326,9.326,9.326c5.151,0,9.326-4.174,9.326-9.326V85.017 C494.733,57.995,472.748,36.009,445.725,36.009z"/> </g> </g> </g>
</svg>