<svg xmlns="http://www.w3.org/2000/svg" version="1.1" xmlns:xlink="http://www.w3.org/1999/xlink" xmlns:svgjs="http://svgjs.dev/svgjs" width="1920" height="1080" preserveAspectRatio="none" viewBox="0 0 1920 1080"><g mask="url(&quot;#SvgjsMask1218&quot;)" fill="none"><rect width="1920" height="1080" x="0" y="0" fill="rgba(255, 255, 255, 1)"></rect><rect width="575.72" height="575.72" clip-path="url(&quot;#SvgjsClipPath1219&quot;)" x="63.65" y="-66.53" fill="url(&quot;#SvgjsPattern1220&quot;)" transform="rotate(145.99, 351.51, 221.33)"></rect><path d="M1554.58 332.45a5.6 5.6 0 1 0-7.62 8.21 5.6 5.6 0 1 0 7.62-8.21zM1543.69 344.18a5.6 5.6 0 1 0-7.61 8.21 5.6 5.6 0 1 0 7.61-8.21zM1532.81 355.91a5.6 5.6 0 1 0-7.62 8.21 5.6 5.6 0 1 0 7.62-8.21zM1521.93 367.64a5.6 5.6 0 1 0-7.62 8.21 5.6 5.6 0 1 0 7.62-8.21zM1564.62 298.11a5.6 5.6 0 1 0-7.62 8.21 5.6 5.6 0 1 0 7.62-8.21zM1553.73 309.84a5.6 5.6 0 1 0-7.62 8.21 5.6 5.6 0 1 0 7.62-8.21zM1542.85 321.57a5.6 5.6 0 1 0-7.62 8.21 5.6 5.6 0 1 0 7.62-8.21zM1531.97 333.3a5.6 5.6 0 1 0-7.62 8.21 5.6 5.6 0 1 0 7.62-8.21zM1574.65 263.77a5.6 5.6 0 1 0-7.61 8.21 5.6 5.6 0 1 0 7.61-8.21zM1563.77 275.5a5.6 5.6 0 1 0-7.62 8.21 5.6 5.6 0 1 0 7.62-8.21zM1552.89 287.23a5.6 5.6 0 1 0-7.62 8.21 5.6 5.6 0 1 0 7.62-8.21zM1542 298.96a5.6 5.6 0 1 0-7.61 8.21 5.6 5.6 0 1 0 7.61-8.21z" stroke="rgba(179, 199, 228, 1)" stroke-width="2.77"></path><path d="M1652.73 666.85L1654.23 679.57 1642.15 683.82 1643.65 696.54 1631.57 700.79 1633.07 713.51 1620.99 717.77" stroke="rgba(45, 82, 146, 1)" stroke-width="2.05" stroke-dasharray="3, 2"></path><path d="M734.87 463.99L730.89 451.82 741.9 445.27 737.92 433.1 748.93 426.55 744.95 414.37 755.96 407.82M742.35 466.81L738.38 454.63 749.38 448.08 745.41 435.91 756.42 429.36 752.44 417.18 763.45 410.63M749.84 469.62L745.87 457.44 756.87 450.89 752.9 438.72 763.9 432.17 759.93 420 770.93 413.45" stroke="rgba(179, 199, 228, 1)" stroke-width="1.95" stroke-dasharray="2, 2"></path><rect width="409.6" height="409.6" clip-path="url(&quot;#SvgjsClipPath1221&quot;)" x="1003.52" y="218.42" fill="url(&quot;#SvgjsPattern1222&quot;)" transform="rotate(163.55, 1208.32, 423.22)"></rect><path d="M1418.95 719.76 L1350.2 893.44L1297.625055646503 719.6500556465029z" stroke="rgba(45, 82, 146, 1)" stroke-width="1.49" stroke-dasharray="3, 2"></path><rect width="87" height="87" clip-path="url(&quot;#SvgjsClipPath1223&quot;)" x="311.77" y="119.85" fill="url(&quot;#SvgjsPattern1224&quot;)" transform="rotate(105.76, 355.27, 163.35)"></rect><rect width="393.6" height="393.6" clip-path="url(&quot;#SvgjsClipPath1225&quot;)" x="753.34" y="582.43" fill="url(&quot;#SvgjsPattern1226&quot;)" transform="rotate(48.58, 950.14, 779.23)"></rect></g><defs><mask id="SvgjsMask1218"><rect width="1920" height="1080" fill="#ffffff"></rect></mask><pattern x="0" y="0" width="7.78" height="7.78" patternUnits="userSpaceOnUse" id="SvgjsPattern1220"><path d="M0 7.78L3.89 0L7.78 7.78" stroke="rgba(179, 199, 228, 1)" fill="none"></path></pattern><clipPath id="SvgjsClipPath1219"><circle r="143.93" cx="351.51" cy="221.33"></circle></clipPath><pattern x="0" y="0" width="10.24" height="10.24" patternUnits="userSpaceOnUse" id="SvgjsPattern1222"><path d="M5.12 1L5.12 9.24M1 5.12L9.24 5.12" stroke="rgba(247, 152, 154, 1)" fill="none" stroke-width="3.17"></path></pattern><clipPath id="SvgjsClipPath1221"><circle r="102.4" cx="1208.32" cy="423.22"></circle></clipPath><pattern x="0" y="0" width="8.7" height="8.7" patternUnits="userSpaceOnUse" id="SvgjsPattern1224"><path d="M0 8.7L4.35 0L8.7 8.7" stroke="rgba(45, 82, 146, 1)" fill="none"></path></pattern><clipPath id="SvgjsClipPath1223"><circle r="21.75" cx="355.27" cy="163.35"></circle></clipPath><pattern x="0" y="0" width="393.6" height="8.2" patternUnits="userSpaceOnUse" id="SvgjsPattern1226"><rect width="393.6" height="4.1" x="0" y="0" fill="rgba(179, 199, 228, 1)"></rect><rect width="393.6" height="4.1" x="0" y="4.1" fill="rgba(0, 0, 0, 0)"></rect></pattern><clipPath id="SvgjsClipPath1225"><circle r="98.4" cx="950.14" cy="779.23"></circle></clipPath></defs></svg>